<svg xmlns="http://www.w3.org/2000/svg" viewBox="0 0 512 512" role="img" aria-labelledby="logoTitle logoDesc">
  <title id="logoTitle">RealListing Logo</title>
  <desc id="logoDesc">Modern real estate and messaging logo for RealListing.</desc>
  <defs>
    <linearGradient id="bgGradient" x1="72" y1="48" x2="448" y2="464" gradientUnits="userSpaceOnUse">
      <stop offset="0" stop-color="#0f1b2a"/>
      <stop offset="0.56" stop-color="#16283c"/>
      <stop offset="1" stop-color="#214764"/>
    </linearGradient>
    <linearGradient id="goldGradient" x1="128" y1="84" x2="380" y2="380" gradientUnits="userSpaceOnUse">
      <stop offset="0" stop-color="#f6d38d"/>
      <stop offset="0.5" stop-color="#d4a14a"/>
      <stop offset="1" stop-color="#ba7b23"/>
    </linearGradient>
    <linearGradient id="emeraldGradient" x1="278" y1="324" x2="418" y2="428" gradientUnits="userSpaceOnUse">
      <stop offset="0" stop-color="#62dbb0"/>
      <stop offset="1" stop-color="#198c69"/>
    </linearGradient>
    <filter id="softGlow" x="-20%" y="-20%" width="140%" height="140%">
      <feGaussianBlur stdDeviation="18" result="blur"/>
      <feMerge>
        <feMergeNode in="blur"/>
        <feMergeNode in="SourceGraphic"/>
      </feMerge>
    </filter>
  </defs>

  <rect x="40" y="40" width="432" height="432" rx="124" fill="url(#bgGradient)"/>
  <circle cx="396" cy="124" r="66" fill="#f0b450" opacity="0.14"/>
  <circle cx="132" cy="394" r="82" fill="#2fb488" opacity="0.1"/>
  <path d="M124 160c0-26.51 21.49-48 48-48h110c14.24 0 27.77 6.33 36.89 17.26l66.22 79.31A51.97 51.97 0 0 1 397 242v98c0 33.14-26.86 60-60 60H172c-26.51 0-48-21.49-48-48V160Z" fill="#ffffff" opacity="0.06"/>
  <path d="M136 158c0-22.09 17.91-40 40-40h97.5c11.77 0 22.93 5.19 30.53 14.19l65.58 77.72A47.97 47.97 0 0 1 381 241v95c0 30.93-25.07 56-56 56H176c-22.09 0-40-17.91-40-40V158Z" fill="#f7f5f0"/>
  <path d="M290 118v78c0 11.05 8.95 20 20 20h69" fill="none" stroke="#dde6ed" stroke-width="16" stroke-linecap="round" stroke-linejoin="round"/>

  <rect x="178" y="208" width="42" height="118" rx="16" fill="url(#goldGradient)"/>
  <rect x="235" y="170" width="42" height="156" rx="16" fill="#17314a"/>
  <rect x="292" y="228" width="42" height="98" rx="16" fill="#2b5876"/>

  <rect x="184" y="220" width="12" height="12" rx="4" fill="#fff6de" opacity="0.92"/>
  <rect x="184" y="248" width="12" height="12" rx="4" fill="#fff6de" opacity="0.92"/>
  <rect x="184" y="276" width="12" height="12" rx="4" fill="#fff6de" opacity="0.92"/>
  <rect x="241" y="184" width="12" height="12" rx="4" fill="#b6c7d4" opacity="0.85"/>
  <rect x="241" y="212" width="12" height="12" rx="4" fill="#b6c7d4" opacity="0.85"/>
  <rect x="241" y="240" width="12" height="12" rx="4" fill="#b6c7d4" opacity="0.85"/>
  <rect x="298" y="242" width="12" height="12" rx="4" fill="#d9ebf5" opacity="0.9"/>
  <rect x="298" y="270" width="12" height="12" rx="4" fill="#d9ebf5" opacity="0.9"/>

  <g filter="url(#softGlow)">
    <path d="M310 336c0-31.48 25.52-57 57-57s57 25.52 57 57-25.52 57-57 57c-11.33 0-21.88-3.31-30.74-9.03l-33.58 7.3 8.92-31.57A56.75 56.75 0 0 1 310 336Z" fill="url(#emeraldGradient)"/>
  </g>
  <path d="M351.11 315.5c4.72-3.33 10.28 2.1 12.2 5.2 1.87 3.03 2.98 6.53 2.06 9.57-.82 2.7-3.61 4.73-6.31 5.57-2.41.75-4.82-.1-6.57-1.27-2.63 3.75-6.16 7.07-10.74 9.58 5.72 6.89 13.87 12.2 24.6 14.38 4.8.97 7.84-3.92 10.54-7.06 2.7-3.14 4.39-4.67 7.77-4.05 3.39.63 10.02 4.96 12.33 7.32 2.31 2.35 3.49 5.18 2.32 8.31-2.89 7.74-10.55 16.6-20.11 18.72-15.08 3.36-34.83-2.15-52.77-18.62-13.74-12.61-22.05-28.72-22.69-43.05-.48-10.54 7.15-19.41 14.75-22.66 3.07-1.31 5.98-.45 8.41 1.67 2.44 2.12 7.29 8.46 8.22 11.65.93 3.18-.84 4.96-4.31 7.66-3.46 2.71-8.08 5.37-5.7 9.09 1.64 2.56 3.5 5.11 5.8 7.54 5.63-2.66 10.11-6.57 13.89-11.61-1.63-1.66-2.88-3.93-3.57-6.14-.75-2.42-.57-5.59 1.71-7.2Z" fill="#f7f9fb"/>
</svg>
